<?xml version="1.0" encoding="UTF-8" standalone="no"?>
<svg width="399px" height="208px" viewBox="0 0 399 208" version="1.1" xmlns="http://www.w3.org/2000/svg" xmlns:xlink="http://www.w3.org/1999/xlink" xmlns:sketch="http://www.bohemiancoding.com/sketch/ns">
    <!-- Generator: Sketch 3.4 (15575) - http://www.bohemiancoding.com/sketch -->
    <title>mark</title>
    <desc>Created with Sketch.</desc>
    <defs></defs>
    <g id="Page-1" stroke="none" stroke-width="1" fill="none" fill-rule="evenodd" sketch:type="MSPage">
        <g id="mark" sketch:type="MSLayerGroup">
            <path d="M397.968754,185.444902 L398.006722,185.444902 C396.622138,164.230187 385.42212,145.641015 368.82369,134.019392 C380.863954,122.509032 388.691675,106.789355 389.971672,89.2882863 L389.971672,80.1305134 L354.914439,80.1305134 L354.914439,84.8607962 C354.914436,103.827163 339.21878,119.20244 319.857207,119.20244 C317.866469,119.20244 315.914486,119.039896 314.014335,118.727618 L314.014335,120.764729 L314.014335,0 L278.957103,0 L278.957103,122.679861 C272.094277,91.5692597 243.786545,68.2551153 209.908323,68.2551153 C174.663309,68.2551153 145.447327,93.4883916 140.134674,126.482315 C134.154888,94.2698353 105.313738,69.8424436 70.6361077,69.8424436 C31.6248626,69.8424436 9.09494702e-13,100.756635 9.09494702e-13,138.891223 L9.09494702e-13,207.940002 L35.3180538,207.940002 L35.3180538,138.891223 C35.3180538,119.823929 51.1304852,104.366833 70.6361077,104.366833 C90.1417302,104.366833 105.954162,119.823929 105.954162,138.891223 L105.954162,207.940002 L141.272215,207.940002 L141.272215,153.686155 C148.796061,183.91282 176.671395,206.352674 209.908323,206.352674 C243.786545,206.352674 272.094277,183.03853 278.957103,151.927929 L278.957103,206.352674 L314.014335,206.352674 L314.014334,158.667227 C318.401898,156.710499 323.274718,155.620875 328.406431,155.620875 C346.107138,155.620875 360.72767,168.584703 363.0855,185.380634 L363.0855,206.352674 L397.964007,206.352674 C397.964007,206.352674 398.056869,187.512913 397.968754,185.444902 L397.968754,185.444902 Z" fill="#000000" sketch:type="MSShapeGroup"></path>
            <path d="M207.527331,173.018781 L207.527331,173.018781 C226.813789,173.018781 242.448552,157.739353 242.448552,138.891223 C242.448552,120.043093 226.813789,104.763665 207.527331,104.763665 C188.240872,104.763665 172.606109,120.043093 172.606109,138.891223 C172.606109,157.739353 188.240872,173.018781 207.527331,173.018781 L207.527331,173.018781 Z" id="Path" fill="#FFFFFF" sketch:type="MSShapeGroup"></path>
        </g>
    </g>
</svg>